<mxfile host="app.diagrams.net" agent="Mozilla/5.0 (Windows NT 10.0; Win64; x64) AppleWebKit/537.36 (KHTML, like Gecko) Chrome/138.0.0.0 Safari/537.36" version="28.0.7">
  <diagram name="Page-1" id="W1oLQdPZBU6dc9APCUYA">
    <mxGraphModel dx="1042" dy="527" grid="1" gridSize="10" guides="1" tooltips="1" connect="1" arrows="1" fold="1" page="1" pageScale="1" pageWidth="850" pageHeight="1100" math="0" shadow="0">
      <root>
        <mxCell id="0" />
        <mxCell id="1" parent="0" />
        <mxCell id="NmGhcQVKg95Np4cZm6Zm-4" value="" style="edgeStyle=orthogonalEdgeStyle;rounded=0;orthogonalLoop=1;jettySize=auto;html=1;" edge="1" parent="1" source="NmGhcQVKg95Np4cZm6Zm-2" target="NmGhcQVKg95Np4cZm6Zm-3">
          <mxGeometry relative="1" as="geometry" />
        </mxCell>
        <mxCell id="NmGhcQVKg95Np4cZm6Zm-2" value="Plan" style="ellipse;whiteSpace=wrap;html=1;" vertex="1" parent="1">
          <mxGeometry x="365" width="120" height="80" as="geometry" />
        </mxCell>
        <mxCell id="NmGhcQVKg95Np4cZm6Zm-6" value="" style="edgeStyle=orthogonalEdgeStyle;rounded=0;orthogonalLoop=1;jettySize=auto;html=1;" edge="1" parent="1" source="NmGhcQVKg95Np4cZm6Zm-3" target="NmGhcQVKg95Np4cZm6Zm-5">
          <mxGeometry relative="1" as="geometry" />
        </mxCell>
        <mxCell id="NmGhcQVKg95Np4cZm6Zm-3" value="Develop" style="ellipse;whiteSpace=wrap;html=1;" vertex="1" parent="1">
          <mxGeometry x="365" y="160" width="120" height="80" as="geometry" />
        </mxCell>
        <mxCell id="NmGhcQVKg95Np4cZm6Zm-8" value="" style="edgeStyle=orthogonalEdgeStyle;rounded=0;orthogonalLoop=1;jettySize=auto;html=1;" edge="1" parent="1" source="NmGhcQVKg95Np4cZm6Zm-5" target="NmGhcQVKg95Np4cZm6Zm-7">
          <mxGeometry relative="1" as="geometry" />
        </mxCell>
        <mxCell id="NmGhcQVKg95Np4cZm6Zm-5" value="Build" style="ellipse;whiteSpace=wrap;html=1;" vertex="1" parent="1">
          <mxGeometry x="365" y="320" width="120" height="80" as="geometry" />
        </mxCell>
        <mxCell id="NmGhcQVKg95Np4cZm6Zm-10" value="" style="edgeStyle=orthogonalEdgeStyle;rounded=0;orthogonalLoop=1;jettySize=auto;html=1;" edge="1" parent="1" source="NmGhcQVKg95Np4cZm6Zm-7" target="NmGhcQVKg95Np4cZm6Zm-9">
          <mxGeometry relative="1" as="geometry" />
        </mxCell>
        <mxCell id="NmGhcQVKg95Np4cZm6Zm-7" value="Test" style="ellipse;whiteSpace=wrap;html=1;" vertex="1" parent="1">
          <mxGeometry x="365" y="480" width="120" height="80" as="geometry" />
        </mxCell>
        <mxCell id="NmGhcQVKg95Np4cZm6Zm-12" value="" style="edgeStyle=orthogonalEdgeStyle;rounded=0;orthogonalLoop=1;jettySize=auto;html=1;" edge="1" parent="1" source="NmGhcQVKg95Np4cZm6Zm-9" target="NmGhcQVKg95Np4cZm6Zm-11">
          <mxGeometry relative="1" as="geometry" />
        </mxCell>
        <mxCell id="NmGhcQVKg95Np4cZm6Zm-9" value="Release" style="ellipse;whiteSpace=wrap;html=1;" vertex="1" parent="1">
          <mxGeometry x="365" y="640" width="120" height="80" as="geometry" />
        </mxCell>
        <mxCell id="NmGhcQVKg95Np4cZm6Zm-14" value="" style="edgeStyle=orthogonalEdgeStyle;rounded=0;orthogonalLoop=1;jettySize=auto;html=1;" edge="1" parent="1" source="NmGhcQVKg95Np4cZm6Zm-11" target="NmGhcQVKg95Np4cZm6Zm-13">
          <mxGeometry relative="1" as="geometry" />
        </mxCell>
        <mxCell id="NmGhcQVKg95Np4cZm6Zm-11" value="Deploy" style="ellipse;whiteSpace=wrap;html=1;" vertex="1" parent="1">
          <mxGeometry x="365" y="800" width="120" height="80" as="geometry" />
        </mxCell>
        <mxCell id="NmGhcQVKg95Np4cZm6Zm-16" value="" style="edgeStyle=orthogonalEdgeStyle;rounded=0;orthogonalLoop=1;jettySize=auto;html=1;" edge="1" parent="1" source="NmGhcQVKg95Np4cZm6Zm-13" target="NmGhcQVKg95Np4cZm6Zm-15">
          <mxGeometry relative="1" as="geometry" />
        </mxCell>
        <mxCell id="NmGhcQVKg95Np4cZm6Zm-13" value="Operate" style="ellipse;whiteSpace=wrap;html=1;" vertex="1" parent="1">
          <mxGeometry x="365" y="960" width="120" height="80" as="geometry" />
        </mxCell>
        <mxCell id="NmGhcQVKg95Np4cZm6Zm-15" value="Monitor" style="ellipse;whiteSpace=wrap;html=1;" vertex="1" parent="1">
          <mxGeometry x="365" y="1120" width="120" height="80" as="geometry" />
        </mxCell>
      </root>
    </mxGraphModel>
  </diagram>
</mxfile>
